<svg width="49" height="47" viewBox="0 0 49 47" fill="none" xmlns="http://www.w3.org/2000/svg">
<path d="M48.4681 12.3723C48.4681 12.1768 48.4296 11.9806 48.3504 11.7955L44.6629 3.18584C43.9466 1.51465 42.4432 0.476562 40.7392 0.476562H7.93789C6.24228 0.476562 4.77832 1.48047 4.02139 3.16338L0.159473 11.7728C0.0736328 11.9643 0.0317383 12.1687 0.0317383 12.3723L0.03125 15.7938C0.03125 18.5518 1.60098 20.9484 3.89307 22.1419V42.8538C3.89307 45.0399 5.67158 46.8185 7.85762 46.8185H40.8168C43.0029 46.8185 44.7814 45.0399 44.7814 42.8538V22.0496C46.9784 20.8274 48.4688 18.482 48.4688 15.7939L48.4681 12.3723ZM6.69385 4.36377C6.85469 4.00615 7.23027 3.40615 7.93789 3.40615H40.7393C41.462 3.40615 41.8207 3.99121 41.9701 4.33955L44.7831 10.9073H3.75859L6.69385 4.36377ZM6.82275 42.8537V39.5405H17.8562V43.8887H7.85752C7.29658 43.8887 6.82275 43.4147 6.82275 42.8537ZM27.8885 43.8887H20.7859V28.7193H27.8885V43.8887ZM40.8168 43.8887H30.8182V39.5405H41.8517V42.8537C41.8517 43.4147 41.3777 43.8887 40.8168 43.8887ZM41.8518 36.6108H30.8183V27.9134C30.8183 26.7424 29.8655 25.7896 28.6945 25.7896H19.9828C18.8103 25.7896 17.8563 26.7423 17.8563 27.9134V36.6108H6.82295V22.9383C6.94297 22.9443 7.06367 22.9475 7.18516 22.9475C9.50244 22.9475 11.5657 21.84 12.8739 20.1266C14.1821 21.84 16.2454 22.9475 18.5628 22.9475C20.8802 22.9475 22.9434 21.84 24.2516 20.1266C25.5598 21.84 27.623 22.9475 29.9404 22.9475C32.2578 22.9475 34.3211 21.84 35.6293 20.1266C36.9375 21.84 39.0008 22.9475 41.3181 22.9475C41.4979 22.9475 41.6755 22.9386 41.852 22.9254L41.8518 36.6108ZM41.3179 20.0178C38.9888 20.0178 37.0939 18.1229 37.0939 15.7938C37.0939 14.9849 36.4381 14.329 35.6291 14.329C34.8201 14.329 34.1643 14.9849 34.1643 15.7938C34.1643 18.1229 32.2694 20.0178 29.9402 20.0178C27.611 20.0178 25.7162 18.1229 25.7162 15.7938C25.7162 14.9849 25.0604 14.329 24.2514 14.329C23.4424 14.329 22.7865 14.9849 22.7865 15.7938C22.7865 18.1229 20.8917 20.0178 18.5626 20.0178C16.2335 20.0178 14.3386 18.1229 14.3386 15.7938C14.3386 14.9849 13.6827 14.329 12.8737 14.329C12.0647 14.329 11.4089 14.9849 11.4089 15.7938C11.4089 18.1229 9.51406 20.0178 7.18496 20.0178C4.85586 20.0178 2.96094 18.1229 2.96094 15.7938V13.8371H45.5391V15.7938C45.5391 18.1229 43.6455 20.0178 41.3179 20.0178Z" fill="#7261FF"/>
</svg>
